<svg width="44" height="29" viewBox="0 0 44 29" fill="none" xmlns="http://www.w3.org/2000/svg">
<path d="M9.37486 17.2572C9.37486 24.684 14.4032 29 22.793 29C30.8001 29 36.1837 24.7121 36.1837 17.2852C36.1837 9.83033 30.6088 5.51435 22.5197 5.54237C14.3759 5.54237 9.37486 9.85835 9.37486 17.2572Z" fill="white"/>
<path d="M6.02373 26.7633C6.02373 28.1779 7.07131 29 8.81917 29C10.4873 29 11.6089 28.1833 11.6089 26.7686C11.6089 25.3486 10.4475 24.5265 8.76224 24.5319C7.06562 24.5319 6.02373 25.354 6.02373 26.7633Z" fill="white"/>
<path d="M37.6387 5.24595C38.386 5.06116 39.0531 5.75464 38.8395 6.49421L36.5794 14.3188C36.3658 15.0584 35.4317 15.2894 34.898 14.7346L29.2517 8.865C28.718 8.31022 28.9851 7.38576 29.7323 7.20097L37.6387 5.24595Z" fill="white"/>
<path d="M7.88339 5.24595C7.13609 5.06116 6.469 5.75464 6.68262 6.49421L8.9427 14.3188C9.15631 15.0584 10.0904 15.2894 10.6241 14.7346L16.2704 8.865C16.8041 8.31022 16.537 7.38576 15.7897 7.20097L7.88339 5.24595Z" fill="white"/>
<path d="M6.58225 18.9467C0.907926 19.5052 -2.44318 24.5318 6.58225 26.2074" stroke="white" stroke-width="2" stroke-linecap="round" stroke-linejoin="round"/>
</svg>
