<svg width="40" height="40" viewBox="0 0 40 40" fill="none" xmlns="http://www.w3.org/2000/svg">
<g clip-path="url(#clip0_96_888)">
<path d="M6.42564 29.084H3.89813V39.9485H6.42564V29.084Z" fill="#002882"/>
<path d="M36.1144 17.9177H33.5743V39.9485H36.1144V17.9177Z" fill="#002882"/>
<path d="M19.9937 32.3408C23.2631 32.3408 25.1619 30.1905 25.1619 27.0846C25.1619 24.3936 23.7409 22.5829 21.2763 22.1302V-0.0012207H18.7362V22.1302C16.259 22.5829 14.8381 24.3936 14.8381 27.1726C14.8381 30.266 16.7243 32.3408 19.9937 32.3408Z" fill="#002882"/>
<path d="M34.8318 15.3776C38.1012 15.3776 40 13.2273 40 10.1214C40 7.4304 38.5791 5.61965 36.1144 5.16697V-0.0012207H33.5744V5.17954C31.0971 5.63223 29.6762 7.44298 29.6762 10.222C29.6888 13.3028 31.5624 15.3776 34.8318 15.3776Z" fill="#002882"/>
<path d="M5.15561 26.5565C8.42502 26.5565 10.3238 24.4062 10.3238 21.3003C10.3238 18.6093 8.90286 16.7985 6.42565 16.3458V-0.0012207H3.89815V16.3458C1.40836 16.7985 0 18.6093 0 21.3883C0 24.4816 1.8862 26.5565 5.15561 26.5565Z" fill="#002882"/>
<path d="M21.2763 34.8683H18.7363V39.9485H21.2763V34.8683Z" fill="#002882"/>
</g>
<defs>
<clipPath id="clip0_96_888">
<rect width="40" height="39.9497" fill="white" transform="translate(0 -0.0012207)"/>
</clipPath>
</defs>
</svg>
