<?xml version="1.0" encoding="UTF-8" standalone="no"?>
<svg
   xmlns:dc="http://purl.org/dc/elements/1.1/"
   xmlns:cc="http://creativecommons.org/ns#"
   xmlns:rdf="http://www.w3.org/1999/02/22-rdf-syntax-ns#"
   xmlns:svg="http://www.w3.org/2000/svg"
   xmlns="http://www.w3.org/2000/svg"
   viewBox="0 0 124.32 44.026669"
   height="44.026669"
   width="124.32"
   xml:space="preserve"
   id="svg2"
   version="1.1"><metadata
     id="metadata8"><rdf:RDF><cc:Work
         rdf:about=""><dc:format>image/svg+xml</dc:format><dc:type
           rdf:resource="http://purl.org/dc/dcmitype/StillImage" /></cc:Work></rdf:RDF></metadata><defs
     id="defs6" /><g
     transform="matrix(1.3333333,0,0,-1.3333333,0,44.026667)"
     id="g10"><g
       transform="scale(0.1)"
       id="g12"><path
         id="path14"
         style="fill:#54a2de;fill-opacity:1;fill-rule:nonzero;stroke:none"
         d="M 238.16,198.148 H 16.0273 L 0,154.113 h 222.133 z m 24.008,66.047 H 40.0313 L 24.0039,220.164 H 246.137 Z m 8.02,22.02 H 48.0508 l 16.0312,44.031 h 222.133 l -16.027,-44.031" /><path
         id="path16"
         style="fill:#283c7b;fill-opacity:1;fill-rule:nonzero;stroke:none"
         d="m 468.043,140.785 v -0.914 c 10.055,-3.656 19.652,-10.058 24.684,-14.172 15.539,-12.797 22.394,-29.7107 22.394,-51.6482 0,-36.1133 -19.199,-62.168 -50.734,-70.39455 -9.602,-2.742187 -19.657,-3.66015625 -38.399,-3.66015625 H 330.461 V 264.195 h 84.559 c 17.367,0 29.253,-0.91 39.765,-3.656 30.625,-8.226 50.738,-29.254 50.738,-62.617 0,-17.828 -6.398,-32.914 -16.914,-42.969 -4.57,-4.57 -10.968,-10.058 -20.566,-14.168 z M 383.48,112.902 V 43.4258 h 36.571 c 10.965,0 21.023,0.914 28.34,7.7695 7.308,6.8555 10.511,15.5391 10.511,26.9649 0,8.6875 -2.289,16.914 -6.859,22.8598 -7.77,9.597 -17.371,11.882 -33.824,11.882 z m -0.457,45.707 h 29.711 c 9.141,0 13.711,0 18.282,1.375 12.343,3.657 20.113,14.621 20.113,29.707 0,17.825 -8.227,25.598 -20.113,29.258 -5.028,1.367 -10.055,1.824 -20.114,1.824 H 383.023 Z M 594.652,-0.00390625 V 219.859 H 518.32 v 44.336 H 730.41 L 715.328,219.859 H 647.676 V -0.00390625 Z m 152.215,0 V 264.195 H 918.73 L 903.648,219.859 H 799.434 v -58.504 h 42.511 c 34.282,0 52.102,-8.234 64.446,-18.746 9.601,-8.226 26.054,-26.507 26.054,-62.6207 0,-35.6485 -16.914,-55.3047 -31.082,-65.3633 C 884.906,3.19922 867.539,-0.00390625 832.344,-0.00390625 Z M 799.434,44.3398 h 39.765 c 15.082,0 24.223,3.6563 30.625,11.8829 3.199,4.1132 7.77,11.4257 7.77,25.1367 0,13.7148 -4.571,23.3166 -13.711,30.1716 -5.485,4.11 -12.797,6.395 -25.141,6.395 H 799.434 V 44.3398" /></g></g></svg>